<svg width="20" height="20" viewBox="0 0 20 20" fill="none" xmlns="http://www.w3.org/2000/svg">
<path d="M5.84123 1.496C5.85389 1.496 5.90456 1.496 5.99323 1.496C7.04456 1.48333 8.00723 1.477 8.88123 1.477H11.3702C11.6362 1.477 11.8009 1.48333 11.8642 1.496C11.9402 1.50867 12.0036 1.52767 12.0542 1.553L12.0732 1.572C12.1112 1.58467 12.4659 1.92667 13.1372 2.598L16.0062 5.505C16.1836 5.695 16.2912 5.82167 16.3292 5.885C16.3799 5.94833 16.4116 6.01167 16.4242 6.075V6.113C16.4369 6.17633 16.4432 7.71533 16.4432 10.73L16.4242 15.214L16.3862 15.404C16.2596 15.9233 16.0062 16.3603 15.6262 16.715C15.2589 17.057 14.8219 17.2533 14.3152 17.304C14.2266 17.3167 12.7826 17.323 9.98323 17.323H6.41123C5.98056 17.3103 5.73356 17.2977 5.67023 17.285C5.32823 17.209 5.01156 17.0697 4.72023 16.867C4.21356 16.4997 3.90323 15.9993 3.78923 15.366C3.77656 15.2773 3.76389 14.948 3.75123 14.378V4.422C3.76389 3.852 3.77656 3.52267 3.78923 3.434C3.87789 3.06667 4.03623 2.731 4.26423 2.427C4.65689 1.88233 5.18256 1.572 5.84123 1.496ZM5.89823 3.111C5.69556 3.187 5.54356 3.31367 5.44223 3.491L5.42323 3.529C5.39789 3.57967 5.37889 3.68733 5.36623 3.852C5.35356 4.06733 5.34723 4.574 5.34723 5.372V9.4C5.34723 13.086 5.35989 14.9923 5.38523 15.119C5.42323 15.2837 5.50556 15.4167 5.63223 15.518C5.69556 15.5813 5.80323 15.6447 5.95523 15.708H14.2392C14.3912 15.6447 14.5052 15.5813 14.5812 15.518C14.7206 15.404 14.8029 15.2583 14.8282 15.081C14.8409 15.0303 14.8472 13.6687 14.8472 10.996V7.025H13.5932C12.7192 7.025 12.2569 7.01867 12.2062 7.006C11.9149 6.95533 11.6552 6.82867 11.4272 6.626C11.1992 6.42333 11.0409 6.18267 10.9522 5.904C10.9142 5.80267 10.8952 5.65067 10.8952 5.448C10.8826 5.28333 10.8762 4.878 10.8762 4.232V3.073H6.35423C6.10089 3.08567 5.94889 3.09833 5.89823 3.111ZM12.4722 4.802V5.429H13.7072L13.0992 4.802L12.4722 4.194V4.802Z" fill="#475569"/>
</svg>
